<?xml version="1.0" encoding="UTF-8" standalone="no"?>
<!DOCTYPE svg PUBLIC "-//W3C//DTD SVG 1.1//EN"
 "http://www.w3.org/Graphics/SVG/1.1/DTD/svg11.dtd">
<!-- Generated by graphviz version 2.43.0 (0)
 -->
<!-- Title: flowchart Pages: 1 -->
<svg width="536pt" height="188pt"
 viewBox="0.00 0.00 535.50 188.00" xmlns="http://www.w3.org/2000/svg" xmlns:xlink="http://www.w3.org/1999/xlink">
<g id="graph0" class="graph" transform="scale(1 1) rotate(0) translate(4 184)">
<title>flowchart</title>
<polygon fill="white" stroke="transparent" points="-4,4 -4,-184 531.5,-184 531.5,4 -4,4"/>
<!-- A -->
<g id="node1" class="node">
<title>A</title>
<polygon fill="#d2e3f3" stroke="#d2e3f3" points="409,-180 230,-180 230,-144 409,-144 409,-180"/>
<text text-anchor="middle" x="319.5" y="-158.3" font-family="Helvetica,sans-Serif" font-size="14.00">Cell of Nervous System</text>
</g>
<!-- B -->
<g id="node2" class="node">
<title>B</title>
<polygon fill="#d2e3f3" stroke="#d2e3f3" points="282,-108 215,-108 215,-72 282,-72 282,-108"/>
<text text-anchor="middle" x="248.5" y="-86.3" font-family="Helvetica,sans-Serif" font-size="14.00">Neuron</text>
</g>
<!-- A&#45;&gt;B -->
<g id="edge1" class="edge">
<title>A&#45;&gt;B</title>
<path fill="none" stroke="black" d="M256,-143.83C256,-143.83 256,-118.41 256,-118.41"/>
<polygon fill="black" stroke="black" points="259.5,-118.41 256,-108.41 252.5,-118.41 259.5,-118.41"/>
</g>
<!-- C -->
<g id="node3" class="node">
<title>C</title>
<polygon fill="#d2e3f3" stroke="#d2e3f3" points="417.5,-108 363.5,-108 363.5,-72 417.5,-72 417.5,-108"/>
<text text-anchor="middle" x="390.5" y="-86.3" font-family="Helvetica,sans-Serif" font-size="14.00">Glia</text>
</g>
<!-- A&#45;&gt;C -->
<g id="edge2" class="edge">
<title>A&#45;&gt;C</title>
<path fill="none" stroke="black" d="M386.25,-143.83C386.25,-143.83 386.25,-118.41 386.25,-118.41"/>
<polygon fill="black" stroke="black" points="389.75,-118.41 386.25,-108.41 382.75,-118.41 389.75,-118.41"/>
</g>
<!-- D -->
<g id="node4" class="node">
<title>D</title>
<polygon fill="#d2e3f3" stroke="#d2e3f3" points="147,-36 0,-36 0,0 147,0 147,-36"/>
<text text-anchor="middle" x="73.5" y="-14.3" font-family="Helvetica,sans-Serif" font-size="14.00">Cholinergic neuron</text>
</g>
<!-- B&#45;&gt;D -->
<g id="edge3" class="edge">
<title>B&#45;&gt;D</title>
<path fill="none" stroke="black" d="M214.76,-90C163.91,-90 73.5,-90 73.5,-90 73.5,-90 73.5,-46.17 73.5,-46.17"/>
<polygon fill="black" stroke="black" points="77,-46.17 73.5,-36.17 70,-46.17 77,-46.17"/>
</g>
<!-- E -->
<g id="node5" class="node">
<title>E</title>
<polygon fill="#d2e3f3" stroke="#d2e3f3" points="331.5,-36 165.5,-36 165.5,0 331.5,0 331.5,-36"/>
<text text-anchor="middle" x="248.5" y="-14.3" font-family="Helvetica,sans-Serif" font-size="14.00">Dopaminergic neuron</text>
</g>
<!-- B&#45;&gt;E -->
<g id="edge4" class="edge">
<title>B&#45;&gt;E</title>
<path fill="none" stroke="black" d="M248.5,-71.83C248.5,-71.83 248.5,-46.41 248.5,-46.41"/>
<polygon fill="black" stroke="black" points="252,-46.41 248.5,-36.41 245,-46.41 252,-46.41"/>
</g>
<!-- F -->
<g id="node6" class="node">
<title>F</title>
<polygon fill="#d2e3f3" stroke="#d2e3f3" points="431.5,-36 349.5,-36 349.5,0 431.5,0 431.5,-36"/>
<text text-anchor="middle" x="390.5" y="-14.3" font-family="Helvetica,sans-Serif" font-size="14.00">Astrocyte</text>
</g>
<!-- C&#45;&gt;F -->
<g id="edge5" class="edge">
<title>C&#45;&gt;F</title>
<path fill="none" stroke="black" d="M390.5,-71.83C390.5,-71.83 390.5,-46.41 390.5,-46.41"/>
<polygon fill="black" stroke="black" points="394,-46.41 390.5,-36.41 387,-46.41 394,-46.41"/>
</g>
<!-- G -->
<g id="node7" class="node">
<title>G</title>
<polygon fill="#d2e3f3" stroke="#d2e3f3" points="527.5,-36 449.5,-36 449.5,0 527.5,0 527.5,-36"/>
<text text-anchor="middle" x="488.5" y="-14.3" font-family="Helvetica,sans-Serif" font-size="14.00">Microglia</text>
</g>
<!-- C&#45;&gt;G -->
<g id="edge6" class="edge">
<title>C&#45;&gt;G</title>
<path fill="none" stroke="black" d="M417.54,-90C446.55,-90 488.5,-90 488.5,-90 488.5,-90 488.5,-46.17 488.5,-46.17"/>
<polygon fill="black" stroke="black" points="492,-46.17 488.5,-36.17 485,-46.17 492,-46.17"/>
</g>
</g>
</svg>
