<?xml version="1.0" encoding="UTF-8" standalone="no"?>
<!DOCTYPE svg PUBLIC "-//W3C//DTD SVG 1.1//EN"
 "http://www.w3.org/Graphics/SVG/1.1/DTD/svg11.dtd">
<!-- Generated by graphviz version 2.43.0 (0)
 -->
<!-- Title: flowchart Pages: 1 -->
<svg width="282pt" height="188pt"
 viewBox="0.00 0.00 282.00 188.00" xmlns="http://www.w3.org/2000/svg" xmlns:xlink="http://www.w3.org/1999/xlink">
<g id="graph0" class="graph" transform="scale(1 1) rotate(0) translate(4 184)">
<title>flowchart</title>
<polygon fill="white" stroke="transparent" points="-4,4 -4,-184 278,-184 278,4 -4,4"/>
<!-- D -->
<g id="node1" class="node">
<title>D</title>
<polygon fill="#d2e3f3" stroke="#d2e3f3" points="54,-36 0,-36 0,0 54,0 54,-36"/>
<text text-anchor="middle" x="27" y="-14.3" font-family="Helvetica,sans-Serif" font-size="14.00">D</text>
</g>
<!-- F -->
<g id="node2" class="node">
<title>F</title>
<polygon fill="#d2e3f3" stroke="#d2e3f3" points="126,-36 72,-36 72,0 126,0 126,-36"/>
<text text-anchor="middle" x="99" y="-14.3" font-family="Helvetica,sans-Serif" font-size="14.00">F</text>
</g>
<!-- H -->
<g id="node3" class="node">
<title>H</title>
<polygon fill="#d2e3f3" stroke="#d2e3f3" points="202,-36 148,-36 148,0 202,0 202,-36"/>
<text text-anchor="middle" x="175" y="-14.3" font-family="Helvetica,sans-Serif" font-size="14.00">H</text>
</g>
<!-- I -->
<g id="node4" class="node">
<title>I</title>
<polygon fill="#d2e3f3" stroke="#d2e3f3" points="274,-36 220,-36 220,0 274,0 274,-36"/>
<text text-anchor="middle" x="247" y="-14.3" font-family="Helvetica,sans-Serif" font-size="14.00">I</text>
</g>
<!-- E -->
<g id="node5" class="node">
<title>E</title>
<polygon fill="#d2e3f3" stroke="#d2e3f3" points="105,-180 51,-180 51,-144 105,-144 105,-180"/>
<text text-anchor="middle" x="78" y="-158.3" font-family="Helvetica,sans-Serif" font-size="14.00">E</text>
</g>
<!-- G -->
<g id="node6" class="node">
<title>G</title>
<polygon fill="#d2e3f3" stroke="#d2e3f3" points="271,-180 217,-180 217,-144 271,-144 271,-180"/>
<text text-anchor="middle" x="244" y="-158.3" font-family="Helvetica,sans-Serif" font-size="14.00">G</text>
</g>
<!-- A -->
<g id="node7" class="node">
<title>A</title>
<polygon fill="#d2e3f3" stroke="#d2e3f3" points="199,-180 123,-180 123,-144 199,-144 199,-180"/>
<text text-anchor="middle" x="161" y="-158.3" font-family="Helvetica,sans-Serif" font-size="14.00">CNS Cell</text>
</g>
<!-- B -->
<g id="node8" class="node">
<title>B</title>
<polygon fill="#d2e3f3" stroke="#d2e3f3" points="113.5,-108 46.5,-108 46.5,-72 113.5,-72 113.5,-108"/>
<text text-anchor="middle" x="80" y="-86.3" font-family="Helvetica,sans-Serif" font-size="14.00">Neuron</text>
</g>
<!-- A&#45;&gt;B -->
<g id="edge1" class="edge">
<title>A&#45;&gt;B</title>
<path fill="none" stroke="black" d="M122.85,-162C115.09,-162 109.25,-162 109.25,-162 109.25,-162 109.25,-118.17 109.25,-118.17"/>
<polygon fill="black" stroke="black" points="112.75,-118.17 109.25,-108.17 105.75,-118.17 112.75,-118.17"/>
</g>
<!-- C -->
<g id="node9" class="node">
<title>C</title>
<polygon fill="#d2e3f3" stroke="#d2e3f3" points="221,-108 167,-108 167,-72 221,-72 221,-108"/>
<text text-anchor="middle" x="194" y="-86.3" font-family="Helvetica,sans-Serif" font-size="14.00">Glia</text>
</g>
<!-- A&#45;&gt;C -->
<g id="edge2" class="edge">
<title>A&#45;&gt;C</title>
<path fill="none" stroke="black" d="M183,-143.83C183,-143.83 183,-118.41 183,-118.41"/>
<polygon fill="black" stroke="black" points="186.5,-118.41 183,-108.41 179.5,-118.41 186.5,-118.41"/>
</g>
<!-- B&#45;&gt;D -->
<g id="edge3" class="edge">
<title>B&#45;&gt;D</title>
<path fill="none" stroke="black" d="M50.25,-71.83C50.25,-71.83 50.25,-46.41 50.25,-46.41"/>
<polygon fill="black" stroke="black" points="53.75,-46.41 50.25,-36.41 46.75,-46.41 53.75,-46.41"/>
</g>
<!-- B&#45;&gt;F -->
<g id="edge5" class="edge">
<title>B&#45;&gt;F</title>
<path fill="none" stroke="black" d="M92.75,-71.83C92.75,-71.83 92.75,-46.41 92.75,-46.41"/>
<polygon fill="black" stroke="black" points="96.25,-46.41 92.75,-36.41 89.25,-46.41 96.25,-46.41"/>
</g>
<!-- B&#45;&gt;E -->
<g id="edge4" class="edge">
<title>B&#45;&gt;E</title>
<path fill="none" stroke="black" d="M78,-108.17C78,-108.17 78,-133.59 78,-133.59"/>
<polygon fill="black" stroke="black" points="74.5,-133.59 78,-143.59 81.5,-133.59 74.5,-133.59"/>
</g>
<!-- C&#45;&gt;H -->
<g id="edge7" class="edge">
<title>C&#45;&gt;H</title>
<path fill="none" stroke="black" d="M184.5,-71.83C184.5,-71.83 184.5,-46.41 184.5,-46.41"/>
<polygon fill="black" stroke="black" points="188,-46.41 184.5,-36.41 181,-46.41 188,-46.41"/>
</g>
<!-- C&#45;&gt;I -->
<g id="edge8" class="edge">
<title>C&#45;&gt;I</title>
<path fill="none" stroke="black" d="M211,-71.83C211,-50.5 211,-18 211,-18 211,-18 211.87,-18 211.87,-18"/>
<polygon fill="black" stroke="black" points="209.71,-21.5 219.71,-18 209.71,-14.5 209.71,-21.5"/>
</g>
<!-- C&#45;&gt;G -->
<g id="edge6" class="edge">
<title>C&#45;&gt;G</title>
<path fill="none" stroke="black" d="M208,-108.17C208,-129.5 208,-162 208,-162 208,-162 208.87,-162 208.87,-162"/>
<polygon fill="black" stroke="black" points="206.71,-165.5 216.71,-162 206.71,-158.5 206.71,-165.5"/>
</g>
</g>
</svg>
