<?xml version="1.0" encoding="UTF-8" standalone="no"?>
<!DOCTYPE svg PUBLIC "-//W3C//DTD SVG 1.1//EN"
 "http://www.w3.org/Graphics/SVG/1.1/DTD/svg11.dtd">
<!-- Generated by graphviz version 2.43.0 (0)
 -->
<!-- Title: flowchart Pages: 1 -->
<svg width="749pt" height="188pt"
 viewBox="0.00 0.00 748.50 188.00" xmlns="http://www.w3.org/2000/svg" xmlns:xlink="http://www.w3.org/1999/xlink">
<g id="graph0" class="graph" transform="scale(1 1) rotate(0) translate(4 184)">
<title>flowchart</title>
<polygon fill="white" stroke="transparent" points="-4,4 -4,-184 744.5,-184 744.5,4 -4,4"/>
<!-- A -->
<g id="node1" class="node">
<title>A</title>
<polygon fill="#d2e3f3" stroke="#d2e3f3" points="310,-180 234,-180 234,-144 310,-144 310,-180"/>
<text text-anchor="middle" x="272" y="-158.3" font-family="Helvetica,sans-Serif" font-size="14.00">CNS Cell</text>
</g>
<!-- B -->
<g id="node2" class="node">
<title>B</title>
<polygon fill="#d2e3f3" stroke="#d2e3f3" points="228,-108 174,-108 174,-72 228,-72 228,-108"/>
<text text-anchor="middle" x="201" y="-86.3" font-family="Helvetica,sans-Serif" font-size="14.00">Glia</text>
</g>
<!-- A&#45;&gt;B -->
<g id="edge1" class="edge">
<title>A&#45;&gt;B</title>
<path fill="none" stroke="black" d="M233.59,-162C216.86,-162 201,-162 201,-162 201,-162 201,-118.17 201,-118.17"/>
<polygon fill="black" stroke="black" points="204.5,-118.17 201,-108.17 197.5,-118.17 204.5,-118.17"/>
</g>
<!-- C -->
<g id="node3" class="node">
<title>C</title>
<polygon fill="#d2e3f3" stroke="#d2e3f3" points="502.5,-108 435.5,-108 435.5,-72 502.5,-72 502.5,-108"/>
<text text-anchor="middle" x="469" y="-86.3" font-family="Helvetica,sans-Serif" font-size="14.00">Neuron</text>
</g>
<!-- A&#45;&gt;C -->
<g id="edge2" class="edge">
<title>A&#45;&gt;C</title>
<path fill="none" stroke="black" d="M310.45,-162C367.78,-162 469,-162 469,-162 469,-162 469,-118.17 469,-118.17"/>
<polygon fill="black" stroke="black" points="472.5,-118.17 469,-108.17 465.5,-118.17 472.5,-118.17"/>
</g>
<!-- D -->
<g id="node4" class="node">
<title>D</title>
<polygon fill="#d2e3f3" stroke="#d2e3f3" points="82,-36 0,-36 0,0 82,0 82,-36"/>
<text text-anchor="middle" x="41" y="-14.3" font-family="Helvetica,sans-Serif" font-size="14.00">Astrocyte</text>
</g>
<!-- B&#45;&gt;D -->
<g id="edge3" class="edge">
<title>B&#45;&gt;D</title>
<path fill="none" stroke="black" d="M173.86,-90C128.21,-90 41,-90 41,-90 41,-90 41,-46.17 41,-46.17"/>
<polygon fill="black" stroke="black" points="44.5,-46.17 41,-36.17 37.5,-46.17 44.5,-46.17"/>
</g>
<!-- E -->
<g id="node5" class="node">
<title>E</title>
<polygon fill="#d2e3f3" stroke="#d2e3f3" points="178,-36 100,-36 100,0 178,0 178,-36"/>
<text text-anchor="middle" x="139" y="-14.3" font-family="Helvetica,sans-Serif" font-size="14.00">Microglia</text>
</g>
<!-- B&#45;&gt;E -->
<g id="edge4" class="edge">
<title>B&#45;&gt;E</title>
<path fill="none" stroke="black" d="M187.25,-71.83C187.25,-50.5 187.25,-18 187.25,-18 187.25,-18 186.37,-18 186.37,-18"/>
<polygon fill="black" stroke="black" points="188.4,-14.5 178.4,-18 188.4,-21.5 188.4,-14.5"/>
</g>
<!-- F -->
<g id="node6" class="node">
<title>F</title>
<polygon fill="#d2e3f3" stroke="#d2e3f3" points="327.5,-36 196.5,-36 196.5,0 327.5,0 327.5,-36"/>
<text text-anchor="middle" x="262" y="-14.3" font-family="Helvetica,sans-Serif" font-size="14.00">Oligodendrocyte</text>
</g>
<!-- B&#45;&gt;F -->
<g id="edge5" class="edge">
<title>B&#45;&gt;F</title>
<path fill="none" stroke="black" d="M212.25,-71.83C212.25,-71.83 212.25,-46.41 212.25,-46.41"/>
<polygon fill="black" stroke="black" points="215.75,-46.41 212.25,-36.41 208.75,-46.41 215.75,-46.41"/>
</g>
<!-- G -->
<g id="node7" class="node">
<title>G</title>
<polygon fill="#d2e3f3" stroke="#d2e3f3" points="464.5,-36 345.5,-36 345.5,0 464.5,0 464.5,-36"/>
<text text-anchor="middle" x="405" y="-14.3" font-family="Helvetica,sans-Serif" font-size="14.00">Bipolar neuron</text>
</g>
<!-- C&#45;&gt;G -->
<g id="edge6" class="edge">
<title>C&#45;&gt;G</title>
<path fill="none" stroke="black" d="M450,-71.83C450,-71.83 450,-46.41 450,-46.41"/>
<polygon fill="black" stroke="black" points="453.5,-46.41 450,-36.41 446.5,-46.41 453.5,-46.41"/>
</g>
<!-- H -->
<g id="node8" class="node">
<title>H</title>
<polygon fill="#d2e3f3" stroke="#d2e3f3" points="583.5,-36 482.5,-36 482.5,0 583.5,0 583.5,-36"/>
<text text-anchor="middle" x="533" y="-14.3" font-family="Helvetica,sans-Serif" font-size="14.00">Purkinje cell</text>
</g>
<!-- C&#45;&gt;H -->
<g id="edge7" class="edge">
<title>C&#45;&gt;H</title>
<path fill="none" stroke="black" d="M492.5,-71.83C492.5,-71.83 492.5,-46.41 492.5,-46.41"/>
<polygon fill="black" stroke="black" points="496,-46.41 492.5,-36.41 489,-46.41 496,-46.41"/>
</g>
<!-- I -->
<g id="node9" class="node">
<title>I</title>
<polygon fill="#d2e3f3" stroke="#d2e3f3" points="740.5,-36 601.5,-36 601.5,0 740.5,0 740.5,-36"/>
<text text-anchor="middle" x="671" y="-14.3" font-family="Helvetica,sans-Serif" font-size="14.00">Pyramidal neuron</text>
</g>
<!-- C&#45;&gt;I -->
<g id="edge8" class="edge">
<title>C&#45;&gt;I</title>
<path fill="none" stroke="black" d="M502.81,-90C560.31,-90 671,-90 671,-90 671,-90 671,-46.17 671,-46.17"/>
<polygon fill="black" stroke="black" points="674.5,-46.17 671,-36.17 667.5,-46.17 674.5,-46.17"/>
</g>
</g>
</svg>
